<svg width="26" height="26" viewBox="0 0 26 26" fill="none" xmlns="http://www.w3.org/2000/svg">
<path fill-rule="evenodd" clip-rule="evenodd" d="M15.6256 16.4998V14.7496C16.0193 14.5545 17.1455 13.2139 17.2636 12.1665C17.5733 12.1429 18.0599 11.8585 18.2034 10.7358C18.2804 10.1329 17.9742 9.7943 17.7886 9.68755C17.7886 9.68755 18.2507 8.80989 18.2507 7.75022C18.2507 5.62563 17.4168 3.81256 15.6256 3.81256C15.6256 3.81256 15.0034 2.5 13.0004 2.5C9.28853 2.5 7.75022 4.88098 7.75022 7.75022C7.75022 8.71626 8.21223 9.68755 8.21223 9.68755C8.02673 9.7943 7.72047 10.1338 7.79747 10.7358C7.94097 11.8585 8.4275 12.1429 8.73726 12.1665C8.85539 13.2139 9.98156 14.5545 10.3753 14.7496V16.4998C9.50029 19.1248 2.5 17.3748 2.5 23.5H23.5008C23.5008 17.3748 16.5006 19.1248 15.6256 16.4998Z" fill="white"/>
</svg>
