<svg width="54" height="52" viewBox="0 0 54 52" fill="none" xmlns="http://www.w3.org/2000/svg">
<path d="M54 39.547C53.6605 40.3078 53.2153 40.9572 52.3363 41.1643C52.3038 41.1714 52.2714 41.2178 52.2475 41.2122C51.2726 40.9727 51.1036 41.7194 50.8458 42.3547C50.7373 42.6224 50.6344 42.8943 50.5725 43.0521C50.8627 43.5663 51.1684 43.9875 51.3487 44.4566C51.66 45.2695 51.429 46.0542 50.8923 46.6783C50.3372 47.3249 49.7004 47.911 49.0383 48.4505C48.0761 49.2338 46.7265 49.0042 45.9404 48.1913C45.7234 47.9673 45.5487 47.9701 45.3022 48.0997C45.0444 48.235 44.781 48.3773 44.502 48.4534C43.9498 48.6055 43.7258 48.876 43.7441 49.5057C43.7723 50.4806 42.6734 51.4526 41.6788 51.4611C40.8702 51.4681 40.0601 51.4329 39.2543 51.4696C38.0132 51.5273 37.0312 50.3129 37.0355 49.262C37.0369 48.8154 36.9073 48.6111 36.4748 48.5012C36.0465 48.3928 35.6436 48.1857 35.2562 48.0321C34.8321 48.2744 34.4278 48.5787 33.9728 48.752C33.0092 49.1225 32.147 48.9098 31.4342 48.1434C30.8509 47.5179 30.2071 46.9375 29.6915 46.2613C29.1646 45.571 29.3238 44.0622 30.0409 43.4268C30.2902 43.2056 30.2916 43.014 30.1465 42.7478C30.0071 42.4914 29.831 42.2265 29.7972 41.949C29.714 41.2728 29.3168 41.2164 28.7462 41.2221C26.0568 41.2474 23.3675 41.2122 20.6795 41.246C19.8018 41.2573 19.5948 40.7389 19.5271 40.1458C19.4623 39.5724 20.0639 39.0258 20.7133 39.023C22.5236 39.0159 24.3339 39.0201 26.1442 39.0201C26.3358 39.0201 26.5274 39.0201 26.7922 39.0201C26.7922 38.351 26.8274 37.7058 26.7852 37.0648C26.6852 35.5433 27.9319 34.4853 29.2224 34.4712C29.3647 34.4698 29.5182 34.2796 29.6408 34.1514C29.7211 34.0683 29.7535 33.9387 29.8098 33.8316C30.1648 33.1596 30.2775 32.6172 29.7056 31.8762C29.0266 30.9971 29.228 29.8166 30.0578 28.9558C30.472 28.5261 30.9369 28.1387 31.3158 27.6809C32.1963 26.6172 33.884 26.6271 34.9378 27.6062C35.0139 27.678 35.0914 27.7485 35.1322 27.7865C35.6577 27.5794 36.1508 27.3836 36.6452 27.1934C36.9214 27.0878 37.0439 26.9201 37.027 26.6017C36.9552 25.2352 38.1738 24.2237 39.3853 24.2632C40.3222 24.2942 41.2787 24.266 42.1888 24.4491C43.113 24.6351 43.7596 25.6269 43.761 26.5764C43.761 26.9032 43.83 27.1117 44.185 27.1582C44.3006 27.1737 44.4203 27.2202 44.5232 27.278C45.1994 27.6611 45.7939 27.8288 46.4785 27.1638C46.7814 26.8694 47.414 26.9117 47.9507 26.7891V16.274H2.22308C2.22308 16.4487 2.22308 16.6022 2.22308 16.7544C2.22308 23.0995 2.21885 29.4433 2.22589 35.7884C2.2273 37.0605 3.19795 38.6412 4.41796 38.9469C4.59969 38.992 4.79129 39.0159 4.97865 39.0159C7.01716 39.0201 9.05567 39.0159 11.0942 39.0216C12.0536 39.0244 12.5565 39.74 12.2437 40.6219C12.1057 41.0122 11.8296 41.2263 11.4309 41.2277C9.05849 41.2376 6.68328 41.2967 4.31512 41.1925C3.61495 41.1615 2.84717 40.7713 2.26252 40.3374C0.656512 39.1469 -0.00420621 37.4719 2.01378e-05 35.4714C0.0183343 25.3662 -0.0154765 15.2596 0.026787 5.15445C0.0352397 2.86096 1.65393 0.581548 4.08267 0.0278971C4.26722 -0.0143663 4.46727 0.00394782 4.65886 0.00394782C18.2099 0.00394782 31.7596 0.00394782 45.3107 0.00113026C46.8589 0.00113026 48.0226 0.726653 48.9355 1.91003C49.8469 3.08918 50.2062 4.45006 50.2048 5.92787C50.2005 12.9408 50.2132 19.9537 50.1893 26.9652C50.1865 27.7738 50.24 28.4796 50.8627 29.0911C51.8643 30.0716 51.5445 31.6677 50.6358 32.5257C50.5978 32.5609 50.5682 32.6046 50.5344 32.6426C50.7556 33.185 50.9655 33.7259 51.2022 34.2556C51.2473 34.3557 51.3924 34.4768 51.491 34.4754C52.7208 34.4684 53.5112 35.0925 53.9986 36.173V39.547H54ZM47.9888 14.0044C47.9888 11.1502 48.0071 8.35661 47.9775 5.563C47.9676 4.66561 47.6225 3.83161 47.0491 3.14835C46.6025 2.61583 46.0221 2.21714 45.267 2.21714C31.8244 2.21714 18.3804 2.21714 4.9378 2.21996C4.76734 2.21996 4.58983 2.23546 4.42641 2.28336C3.15428 2.64964 2.24703 4.07533 2.23012 5.43621C2.19772 8.12416 2.22026 10.8135 2.22167 13.5015C2.22167 13.6691 2.23716 13.8382 2.24421 14.0058H47.9873L47.9888 14.0044ZM33.1162 28.9614C32.8021 29.3136 32.5809 29.5855 32.3358 29.8349C31.5511 30.6294 31.5314 30.6435 32.347 31.4339C32.8655 31.9354 32.9049 32.6285 32.6175 33.1751C32.2428 33.8837 31.9019 34.6248 31.661 35.3869C31.3694 36.3097 31.2397 36.7675 30.0014 36.714C28.8829 36.6647 29.0125 36.5661 29.0082 37.6705C29.004 38.9976 29.0082 38.9976 30.3057 39.0216C30.3578 39.0216 30.4114 39.0173 30.4635 39.0216C30.9552 39.0709 31.3651 39.3259 31.4849 39.7795C31.7638 40.8361 32.1836 41.8194 32.7049 42.776C33.0134 43.3423 32.912 43.71 32.4724 44.1495C32.2484 44.3735 31.9934 44.575 31.8145 44.83C31.7314 44.9483 31.7244 45.2343 31.8103 45.3343C32.2301 45.8217 32.6936 46.2711 33.1712 46.7656C33.522 46.3993 33.8192 46.0753 34.132 45.7668C34.4856 45.4174 35.0829 45.3498 35.5281 45.5484C36.4959 45.9809 37.4666 46.412 38.4513 46.8051C38.9655 47.0093 39.2444 47.3263 39.2374 47.8842C39.2332 48.2181 39.205 48.5562 39.2529 48.883C39.2726 49.0169 39.4544 49.2268 39.5727 49.2324C40.2165 49.2662 40.8617 49.2493 41.4858 49.2493C41.521 49.169 41.5464 49.1394 41.5464 49.1084C41.552 48.7393 41.5534 48.3716 41.5577 48.0025C41.5633 47.3376 41.8267 46.9854 42.4325 46.7473C43.4032 46.3655 44.3682 45.9711 45.3276 45.5639C45.8404 45.347 46.3024 45.409 46.7068 45.8048C46.9195 46.0133 47.1336 46.2218 47.3379 46.4402C47.5647 46.6811 47.776 46.6825 48.0057 46.443C48.3353 46.1021 48.6706 45.7668 49.0115 45.4371C49.2468 45.2103 49.2524 45.023 48.9848 44.8088C48.7664 44.6341 48.5833 44.4158 48.386 44.2171C47.9155 43.7438 47.8746 43.3254 48.1409 42.7097C48.5424 41.787 48.9129 40.8502 49.2764 39.9119C49.4947 39.3498 49.9188 39.0286 50.5344 39.0244C50.9472 39.0216 51.3586 39.0244 51.7854 39.0244C51.7854 38.6398 51.7854 38.3411 51.7854 38.0425C51.7854 37.154 51.3487 36.7079 50.4753 36.7041C49.8469 36.7013 49.53 36.4491 49.313 35.8772C48.9538 34.9319 48.5818 33.9894 48.1789 33.0624C47.8901 32.4003 47.9239 31.9805 48.4311 31.4677C48.7016 31.1944 48.9918 30.9408 49.1933 30.7548C48.6382 30.1941 48.124 29.6743 47.5577 29.1009C47.3802 29.2996 47.1843 29.5503 46.9575 29.7673C46.3771 30.3223 45.6953 30.3928 45.1289 30.1124C44.302 29.7025 43.4525 29.3221 42.5804 29.0234C41.7873 28.7515 41.5591 28.5444 41.5577 27.7175C41.5563 26.4749 41.5563 26.4679 40.3095 26.4764C39.074 26.4848 39.2473 26.3115 39.2388 27.5245C39.2318 28.5177 38.9275 28.8473 37.9765 29.1263C37.3088 29.3221 36.6509 29.5982 36.0437 29.9377C34.9589 30.5435 34.5856 30.528 33.691 29.625C33.5192 29.4517 33.3684 29.2559 33.1177 28.9671L33.1162 28.9614Z" fill="#201932" fill-opacity="0.7"/>
<path d="M26.2552 27.5907C26.2369 28.3951 25.672 28.8234 25.2578 29.3122C24.4844 30.2265 23.6673 31.1042 22.8826 32.0072C22.5234 32.42 21.6992 32.5059 21.2696 32.1453C20.7821 31.7353 20.7441 30.9563 21.216 30.4209C21.9063 29.6377 22.6107 28.8671 23.3207 28.1021C23.5687 27.8344 23.7025 27.6414 23.3715 27.2934C22.6304 26.5158 21.9585 25.6733 21.2372 24.876C20.7469 24.335 20.73 23.7222 21.2386 23.2207C21.719 22.7459 22.3191 22.7572 22.822 23.2996C23.8392 24.397 24.8479 25.5015 25.8256 26.6341C26.0453 26.8877 26.1172 27.2695 26.2566 27.5921L26.2552 27.5907Z" fill="#201932" fill-opacity="0.7"/>
<path d="M5.93641 27.6857C5.87161 26.8884 6.48161 26.4826 6.87184 26.0135C7.6509 25.0781 8.5018 24.2018 9.33862 23.3157C9.83733 22.7874 10.422 22.7451 10.8855 23.1635C11.3912 23.6214 11.4433 24.2835 10.9756 24.8231C10.3262 25.5712 9.65982 26.3051 8.98502 27.0307C8.41868 27.6407 8.42291 27.635 8.98642 28.2323C9.66546 28.9536 10.3304 29.689 10.977 30.4399C11.4856 31.0316 11.3842 31.7543 10.7685 32.2065C10.2797 32.5643 9.60065 32.3699 9.15407 31.8008C8.80187 31.35 8.39051 30.9442 8.00732 30.5174C7.41563 29.8581 6.80704 29.2129 6.24916 28.5254C6.07025 28.3042 6.03503 27.9689 5.93359 27.6857H5.93641Z" fill="#201932" fill-opacity="0.7"/>
<path d="M13.9287 31.8921C14.1189 31.0567 14.3359 30.0663 14.5725 29.0816C15.0558 27.0628 15.5502 25.0468 16.0349 23.0295C16.2067 22.3138 16.7336 21.9912 17.4944 22.1518C18.0072 22.2603 18.3833 22.9196 18.241 23.5211C17.786 25.4413 17.3197 27.3586 16.8505 29.276C16.5941 30.3241 16.3434 31.3751 16.0546 32.4148C15.8912 33.005 15.4544 33.2276 14.8346 33.1177C14.226 33.0107 13.9259 32.6585 13.9287 31.8921Z" fill="#201932" fill-opacity="0.7"/>
<path d="M15.9969 41.2347C15.2475 41.2361 14.877 40.8684 14.877 40.1246C14.877 39.5076 15.3559 39.0272 15.9758 39.0215C16.5717 39.0159 17.0986 39.5484 17.0901 40.1486C17.0817 40.8572 16.7013 41.2333 15.9955 41.2347H15.9969Z" fill="#201932" fill-opacity="0.7"/>
<path d="M36.3521 11.7081C34.6996 11.7081 33.0471 11.6785 31.396 11.7165C29.7322 11.7546 28.0839 10.033 28.0276 8.34674C27.9642 6.45474 29.2772 4.87127 30.9128 4.58388C31.1001 4.55148 31.2932 4.5388 31.4847 4.5388C34.7531 4.53598 38.0229 4.53457 41.2913 4.5388C42.8522 4.54021 44.3173 5.86165 44.6244 7.40567C44.8625 8.60595 44.5287 9.64704 43.8003 10.536C43.2114 11.2545 42.3803 11.6926 41.4124 11.7039C39.7261 11.7236 38.0384 11.7095 36.3507 11.7095L36.3521 11.7081ZM36.3366 9.49348C37.9172 9.49348 39.4965 9.49912 41.0771 9.49067C41.8308 9.48644 42.4 8.89053 42.4 8.12978C42.4 7.36341 41.8393 6.75481 41.0926 6.7534C37.9496 6.74636 34.8066 6.74495 31.6637 6.7534C30.8226 6.75622 30.2831 7.35355 30.2647 8.16641C30.2507 8.81023 30.9579 9.5273 31.7017 9.50475C33.2457 9.45967 34.7912 9.49067 36.3366 9.49067V9.49348Z" fill="#201932" fill-opacity="0.7"/>
<path d="M9.93157 11.7086C7.78177 11.8312 6.22224 10.0899 6.24338 8.11479C6.26451 6.16927 7.7874 4.45901 10.0203 4.52945C11.9349 4.59002 13.5028 6.11292 13.5014 8.1472C13.5014 10.1124 11.8827 11.8171 9.93157 11.71V11.7086ZM9.8724 9.49399C10.6839 9.52639 11.2544 8.73043 11.2812 8.11198C11.3108 7.43717 10.5373 6.73982 9.84 6.7525C9.1666 6.76377 8.41713 7.46253 8.46925 8.11902C8.52842 8.88681 9.12433 9.51935 9.87381 9.4954L9.8724 9.49399Z" fill="#201932" fill-opacity="0.7"/>
<path d="M19.0651 11.7082C17.0703 11.8547 15.4685 9.90357 15.4925 8.13696C15.5192 6.19566 17.128 4.40932 19.3145 4.52484C21.229 4.62628 22.7265 6.13649 22.7589 8.11019C22.7913 10.0642 21.198 11.8266 19.0637 11.7096L19.0651 11.7082ZM20.4669 8.17781C20.4669 7.37058 19.8949 6.75072 19.1482 6.75213C18.4523 6.75213 17.7254 7.4537 17.7254 8.12428C17.7254 8.86248 18.365 9.49784 19.106 9.49503C19.8695 9.49221 20.4669 8.91461 20.4683 8.17922L20.4669 8.17781Z" fill="#201932" fill-opacity="0.7"/>
<path d="M46.9349 37.8763C47.0758 41.3293 44.0413 44.6498 40.0037 44.4159C36.8734 44.2342 33.7501 41.518 33.8628 37.7495C33.9685 34.229 36.7198 31.2875 40.5531 31.3325C44.0286 31.3734 47.0265 34.291 46.9349 37.8763ZM40.3982 42.1844C42.7241 42.2407 44.6865 40.1896 44.7231 38.0299C44.7668 35.4307 42.7184 33.5105 40.3939 33.5697C37.9553 33.6317 36.138 35.3278 36.1028 37.9003C36.069 40.3079 38.0737 42.1731 40.3996 42.1844H40.3982Z" fill="#201932" fill-opacity="0.7"/>
</svg>
