<svg width="54" height="54" viewBox="0 0 54 54" fill="none" xmlns="http://www.w3.org/2000/svg">
	<path d="M41.9606 0.00422535C43.0972 0.504225 43.7324 1.33944 43.6423 2.61549C43.5676 3.6662 42.6549 4.80563 41.4535 4.74507C41.0408 4.72394 40.6296 4.65211 40.2169 4.62676C40.0901 4.61831 39.9183 4.64507 39.8352 4.72676C39.0423 5.49859 38.2606 6.28169 37.4859 7.07183C37.3986 7.16056 37.331 7.30986 37.3296 7.43239C37.3169 8.37887 37.3225 9.32394 37.3225 10.3282H43.6324V16.6606C44.6634 16.6606 45.6563 16.6704 46.6493 16.6493C46.7761 16.6465 46.9141 16.5014 47.0211 16.3972C47.7465 15.6817 48.4549 14.9479 49.1916 14.2451C49.4 14.0465 49.4183 13.8789 49.3437 13.6211C48.9254 12.1732 49.462 10.8803 50.9761 10.4197C52.3408 10.0042 54.0352 11.1028 53.993 12.5901C53.9408 14.4268 52.9197 15.3366 51.062 15.1099C50.9282 15.093 50.7437 15.2197 50.6324 15.3296C49.7169 16.2282 48.8239 17.1493 47.8972 18.0352C47.7197 18.2042 47.4268 18.331 47.1831 18.338C46.0282 18.369 44.8704 18.3521 43.6817 18.3521V21.5028H47.6169V23.0732H43.6916V26.1394H47.6254V27.7099H43.6845V30.8803H47.6155V32.469H43.6775V35.6408C44.438 35.6408 45.2113 35.7169 45.9648 35.6239C47.1535 35.4761 48.0338 35.8535 48.7775 36.7887C49.3099 37.4577 49.9831 38.0155 50.5873 38.6282C50.7789 38.8225 50.9296 38.8873 51.2507 38.8324C52.6 38.6028 54.007 39.6648 54.0028 41.0817C54 42.1761 53.6296 42.9592 52.6437 43.4296C51.6789 43.8901 50.793 43.6676 49.9747 43.0648C49.3183 42.5817 49.0197 41.3761 49.3324 40.4423C49.4408 40.1211 49.3789 39.9197 49.1324 39.6859C48.407 38.9972 47.7169 38.269 46.9972 37.5732C46.8732 37.4535 46.6775 37.3423 46.5127 37.338C45.5831 37.3155 44.6535 37.3268 43.6662 37.3268V43.6211H40.4239V41.9803H41.9324V37.369H40.4972V40.4732H37.362V41.9577H38.8761V43.6338H37.3225C37.3225 44.6676 37.3141 45.6451 37.3324 46.6225C37.3352 46.7521 37.4606 46.8986 37.5634 47.0042C38.2901 47.7423 39.0394 48.4606 39.7521 49.2127C39.9634 49.4352 40.138 49.4113 40.3831 49.3451C42.2451 48.8338 43.6521 49.9338 43.6465 51.7028C43.6423 53.0394 42.6366 53.9183 41.2352 54.0056C39.7535 54.0972 38.6239 52.7141 38.8268 51.4155C38.9085 50.8887 38.6873 50.6592 38.3972 50.3704C37.5634 49.5394 36.7225 48.7155 35.907 47.8662C35.7592 47.7113 35.6507 47.4507 35.6451 47.2366C35.6197 46.0634 35.6338 44.8901 35.6338 43.6845H32.5761V47.6225H30.9099V43.6944H27.8437V47.631H26.1676V43.6873H23.207V47.6211H21.5127V43.6789H18.3437C18.3437 44.5141 18.2704 45.3577 18.362 46.1831C18.4775 47.2225 18.1338 47.9718 17.3423 48.6338C16.6169 49.2408 15.9775 49.9507 15.3268 50.6408C15.207 50.7676 15.1465 51.0225 15.1732 51.2014C15.3761 52.5507 14.3451 54.0169 12.8986 54.0056C11.8042 53.9972 11.0225 53.6268 10.5535 52.6423C10.0944 51.6775 10.3155 50.7916 10.9225 49.9747C11.393 49.3394 12.6268 49 13.4986 49.3169C13.8831 49.4563 14.0845 49.3606 14.338 49.0944C15.0169 48.3831 15.7282 47.7028 16.4155 46.9986C16.5268 46.8845 16.6437 46.7127 16.6465 46.5648C16.6676 45.6183 16.6577 44.6718 16.6577 43.6676H10.3521V37.3324C9.30423 37.3324 8.29437 37.3268 7.28451 37.3423C7.18873 37.3437 7.08451 37.4676 7 37.5507C6.26479 38.2803 5.54366 39.0268 4.79296 39.7394C4.56338 39.9577 4.57042 40.1479 4.64366 40.4141C5.04225 41.8493 4.51408 43.0916 3.06056 43.5535C1.88028 43.9296 0.525352 43.2803 0.102817 42.1225C0.0816901 42.0648 0.0352113 42.0169 0 41.9648C0 41.4732 0 40.9803 0 40.4887C0.0338028 40.4535 0.0859155 40.4239 0.0971831 40.3831C0.425352 39.2155 1.7493 38.6479 2.71127 38.831C3.05915 38.8972 3.21549 38.8042 3.4169 38.6014C4.29577 37.7169 5.16761 36.8239 6.07183 35.9676C6.26056 35.7887 6.57324 35.662 6.8338 35.6535C7.98592 35.6197 9.13944 35.6394 10.293 35.6394V32.4648H6.46197V30.8761H10.3056V27.7254H6.46901V26.1366H10.3V23.0732H6.45775V21.5042H10.2944V18.3479C9.09859 18.3479 7.94085 18.3634 6.7831 18.3352C6.55352 18.3296 6.27465 18.2169 6.10845 18.0592C5.25775 17.2479 4.42958 16.4099 3.60563 15.569C3.30986 15.2676 3.06338 15.0958 2.55493 15.1521C1.31549 15.2901 0.497183 14.6 0 13.4972C0 13.0056 0 12.5127 0 12.0211C0.0352113 11.969 0.0816901 11.9211 0.102817 11.8634C0.525352 10.707 1.88028 10.0577 3.06056 10.4324C4.51408 10.893 5.04366 12.138 4.64507 13.5704C4.57183 13.8338 4.55915 14.0268 4.79155 14.2451C5.54366 14.9577 6.26338 15.7042 6.99859 16.4338C7.0831 16.5169 7.18592 16.6423 7.28169 16.6437C8.29155 16.6592 9.30141 16.6535 10.3493 16.6535V10.3225H16.6563C16.6563 9.31972 16.662 8.37324 16.6493 7.42676C16.6479 7.30423 16.5789 7.15634 16.4915 7.06761C15.7169 6.27746 14.9352 5.49437 14.1423 4.72254C14.0592 4.64225 13.8873 4.6169 13.7592 4.62394C13.3465 4.6493 12.9352 4.72113 12.5225 4.74225C11.3211 4.80282 10.4099 3.66197 10.3352 2.61127C10.2451 1.33521 10.8803 0.5 12.0169 0.00140845H13.493C13.5282 0.0352113 13.5577 0.0873239 13.5986 0.0985916C14.7662 0.426761 15.3338 1.7507 15.1507 2.71268C15.0845 3.06056 15.1775 3.2169 15.3803 3.41831C16.2648 4.29718 17.1577 5.16901 18.0141 6.07324C18.193 6.26197 18.3197 6.57465 18.3282 6.83521C18.362 7.98732 18.3423 9.14085 18.3423 10.2944H21.5169V6.35775H23.2099V10.307H26.1493V6.36479H27.8423V10.3H30.9056V6.35211H32.5803V10.293H35.631C35.631 9.09718 35.6155 7.93944 35.6437 6.78169C35.6493 6.55211 35.762 6.27324 35.9197 6.10704C36.731 5.25634 37.569 4.42817 38.4099 3.60563C38.7113 3.30986 38.8789 3.06197 38.8268 2.55493C38.7 1.32394 39.3507 0.478873 40.4803 0H41.9563L41.9606 0.00422535ZM12.0563 18.3746V35.6141H13.5014V23.0268H15.1958V38.7704H38.762V15.2282H15.1592V21.4732H13.4831V18.3732H12.0563V18.3746ZM35.5958 13.4775V12.0648H18.3732V13.4775H35.5958ZM41.9239 35.6141V18.3901H40.5099V35.6141H41.9239ZM18.369 41.9296H35.593V40.5141H18.369V41.9296ZM13.5183 16.6394V13.4817H16.6211V12.0648H12.0451V16.6394H13.5169H13.5183ZM37.3408 13.5141H40.4916V16.6225H41.9324V12.0563H37.3408V13.5141ZM12.0535 37.3366V41.9239H16.6282V40.4761H13.469V37.3366H12.0535ZM12.0183 2.37042C12.0141 2.79437 12.293 3.05775 12.7465 3.06197C13.1704 3.0662 13.4901 2.77606 13.4944 2.3831C13.4986 1.98873 13.1845 1.69296 12.7606 1.69155C12.3028 1.69014 12.0225 1.94648 12.0197 2.37042H12.0183ZM41.9592 2.37042C41.9563 1.94648 41.6761 1.69014 41.2183 1.69155C40.7944 1.69155 40.4803 1.98873 40.4831 2.3831C40.4873 2.77606 40.8056 3.0662 41.2296 3.06197C41.6845 3.05775 41.962 2.79577 41.9577 2.37042H41.9592ZM3.05775 12.7648C3.05915 12.307 2.80282 12.0268 2.38028 12.0225C1.95634 12.0183 1.69155 12.2958 1.68732 12.7507C1.6831 13.1746 1.97324 13.4944 2.36479 13.4986C2.75916 13.5028 3.05634 13.1887 3.05775 12.7648ZM52.293 12.7521C52.2887 12.2972 52.0268 12.0197 51.6014 12.0239C51.1775 12.0268 50.9211 12.307 50.9225 12.7648C50.9225 13.1887 51.2197 13.5028 51.6141 13.5C52.007 13.4958 52.2972 13.1775 52.293 12.7535V12.7521ZM3.05775 41.2423C3.06479 40.8211 2.77465 40.4972 2.38592 40.4887C1.99437 40.4803 1.69155 40.7958 1.68732 41.2169C1.6831 41.6761 1.93662 41.9577 2.35915 41.9648C2.7831 41.9718 3.0507 41.6944 3.05775 41.2437V41.2423ZM52.293 41.2521C52.3028 40.831 52.0197 40.5028 51.631 40.4887C51.2437 40.4747 50.931 40.7916 50.9225 41.207C50.9141 41.6662 51.1634 41.9507 51.5845 41.9648C52.0056 41.9775 52.2817 41.7014 52.293 41.2535V41.2521ZM12.7338 50.9254C12.2859 50.9352 12.0085 51.2099 12.0197 51.631C12.031 52.0535 12.3155 52.3028 12.7746 52.2958C13.2 52.2887 13.5085 51.9859 13.4944 51.5901C13.4817 51.2014 13.1549 50.9155 12.7324 50.9254H12.7338ZM41.2338 50.9254C40.8099 50.9211 40.4901 51.2113 40.4859 51.6028C40.4817 51.9972 40.7944 52.2944 41.2197 52.2958C41.6775 52.2972 41.9577 52.0408 41.962 51.6183C41.9662 51.1944 41.6887 50.9296 41.2352 50.9254H41.2338Z" fill="#201932" fill-opacity="0.7" />
	<path d="M18.2394 26.9179C18.2394 22.2221 22.1098 18.0996 27.276 18.2419C31.7788 18.3658 35.8972 22.0686 35.7394 27.332C35.607 31.7658 31.9126 35.9137 26.6507 35.739C22.1465 35.5897 18.2112 31.9292 18.2394 26.9165V26.9179ZM29.445 27.57C30.2056 28.0968 30.9028 28.6658 31.2324 29.5123C31.5422 30.3081 31.7295 31.1531 31.9634 31.9517C34.6169 29.439 35.007 24.7799 31.7183 21.7728C28.8112 19.1165 24.3676 19.2461 21.645 22.4052C18.9056 25.5827 19.6704 29.8503 22.1338 32.0095C22.1859 30.1095 22.9225 28.5954 24.5352 27.5672C23.4972 25.632 23.5986 23.994 24.8352 22.9869C26.0972 21.9588 27.8591 21.9503 29.138 22.9799C30.3788 23.9771 30.4859 25.6292 29.445 27.57ZM30.2 33.2602C30.1479 32.6123 30.0901 31.9897 30.0493 31.3672C29.9648 30.0757 28.9493 29.0179 27.776 28.7165C26.4563 28.3771 25.2605 28.8658 24.4591 29.9419C23.7028 30.9573 23.8338 32.1292 23.8324 33.2869C25.945 34.3235 28.0295 34.325 30.2 33.2602ZM26.9817 26.8883C27.8873 26.8883 28.4662 26.3109 28.4648 25.4066C28.4648 24.5264 27.8887 23.939 27.0225 23.9362C26.1 23.9334 25.5141 24.4982 25.5126 25.3926C25.5126 26.3109 26.0788 26.8883 26.9817 26.8897V26.8883Z" fill="#201932" fill-opacity="0.7" />
	<path d="M18.3071 18.3243H16.6846V16.7031H18.3071V18.3243Z" fill="#201932" fill-opacity="0.7" />
	<path d="M21.4804 18.3272H19.8564V16.6934H21.4804V18.3272Z" fill="#201932" fill-opacity="0.7" />
</svg>
