<svg width="54" height="50" viewBox="0 0 54 50" fill="none" xmlns="http://www.w3.org/2000/svg">
<path d="M27.4725 7.6227C28.0136 7.20343 28.4329 6.80302 28.9204 6.51723C29.859 5.96739 30.9891 6.14873 31.7566 6.91183C33.039 8.18705 34.3157 9.46806 35.588 10.7389C35.9362 10.1891 36.2858 9.66246 36.6036 9.11843C36.6775 8.99076 36.7051 8.7833 36.6572 8.64548C36.2902 7.58353 36.222 6.5564 36.856 5.55538C36.9314 5.43496 36.8908 5.18398 36.8183 5.03601C36.3352 4.0611 35.8956 3.08764 35.884 1.9604C35.868 0.287683 37.1403 -0.379664 38.5548 0.231104C39.0872 0.460323 39.5979 0.749023 40.0999 1.04063C40.3639 1.19441 40.5627 1.15814 40.8238 1.03047C41.4215 0.737417 42.0236 0.422604 42.6605 0.251415C43.0289 0.152763 43.4932 0.249964 43.8689 0.383433C44.3317 0.548819 44.7307 0.882493 45.1891 1.06819C45.3893 1.14943 45.707 1.11606 45.9029 1.00871C46.6921 0.574933 47.4146 0.000433877 48.3837 0.0163922C49.3397 0.0323505 49.9679 0.675035 50.0172 1.62383C50.0883 2.99769 49.6357 4.20472 48.9408 5.33631C49.6836 6.40842 49.7851 7.54001 49.2353 8.70206C49.1192 8.94724 49.125 9.09812 49.2585 9.28527C50.4844 11.016 51.2924 12.9426 51.7668 14.9896C52.0541 16.23 52.2282 17.5168 52.2645 18.7877C52.3022 20.1355 51.9322 21.4426 51.0284 22.4958C50.5003 23.1124 49.7764 23.4998 48.9524 23.5825C48.1675 23.6608 47.3769 23.6913 46.5876 23.6956C43.8182 23.7087 41.0501 23.7 38.2806 23.7C38.0848 23.7 37.8889 23.7 37.6873 23.7C37.6321 24.3035 37.6539 24.8867 37.5117 25.4264C37.2506 26.4216 36.4715 26.9584 35.4604 26.9584C31.877 26.9584 28.2936 26.9613 24.7103 26.9584C23.2711 26.9584 22.4747 26.072 22.4311 24.701C22.3876 23.33 22.421 21.9576 22.421 20.5852C22.3731 20.5605 22.3252 20.5373 22.2773 20.5127C22.1787 20.6592 22.0423 20.7927 21.9901 20.9537C21.8088 21.505 21.6608 22.0679 21.4896 22.6235C21.285 23.2909 20.725 23.5955 20.1259 23.6724C19.3787 23.7667 18.5982 23.7711 17.8525 23.6681C17.1591 23.5709 16.6397 23.1168 16.4424 22.3943C16.3264 21.9692 16.2074 21.5441 16.1247 21.1118C16.0115 20.517 15.0729 20.0992 14.5608 20.4256C13.8775 20.8608 13.242 21.4382 12.3411 21.3062C12.0495 21.2642 11.697 21.2264 11.4968 21.048C10.9049 20.5228 10.3304 19.9643 9.83277 19.3492C9.18573 18.5498 9.56583 17.7461 9.9793 16.9786C10.046 16.8539 10.1389 16.7436 10.2172 16.6261C10.6829 15.937 10.7163 15.6207 10.2303 14.9954C10.0867 14.8097 9.74137 14.7735 9.48169 14.6879C9.01455 14.5341 8.53144 14.4224 8.07591 14.241C7.484 14.0046 7.23447 13.5026 7.21706 12.8918C7.19965 12.2593 7.21271 11.6253 7.21271 10.9914C7.21271 10.0948 7.61747 9.52899 8.49082 9.25625C8.9275 9.11988 9.38014 9.03429 9.82552 8.92838C10.4174 8.78766 10.7279 7.92881 10.4232 7.39928C10.1084 6.85235 9.81101 6.28801 9.58469 5.7019C9.35983 5.1216 9.55858 4.58772 9.9851 4.14669C10.3246 3.79561 10.7134 3.48515 11.0137 3.1036C11.6941 2.23605 12.8721 2.20413 13.7745 2.75107C14.0617 2.92516 14.3664 3.08184 14.6246 3.29365C14.835 3.46484 14.9931 3.40971 15.2325 3.36909C16.1769 3.2066 16.1827 2.41014 16.3133 1.766C16.5628 0.534312 17.2998 -0.10257 18.5562 0.0134907C19.0581 0.0599148 19.5702 0.00188463 20.0751 0.0265475C20.9427 0.0671686 21.5969 0.796898 21.7696 1.86901C21.7913 2.00828 21.8726 2.1461 21.8624 2.27957C21.7986 3.09344 22.45 3.22111 22.9839 3.43582C23.0999 3.48225 23.3059 3.36619 23.4452 3.28059C24.0748 2.89469 24.6377 2.38693 25.456 2.40143C25.9391 2.41014 26.3699 2.43915 26.7254 2.83086C27.1678 3.31831 27.6713 3.75209 28.1079 4.24389C28.7579 4.97652 28.5591 5.75558 28.1442 6.51577C27.9527 6.86686 27.7293 7.19908 27.4696 7.6227H27.4725ZM33.0681 25.1174C33.8021 25.1174 34.4535 25.0956 35.102 25.1246C35.6257 25.1478 35.7955 24.9302 35.7911 24.421C35.7737 22.2492 35.7824 20.076 35.7868 17.9042C35.7868 17.7301 35.8085 17.5473 35.8622 17.3834C36.103 16.658 36.7211 16.7828 37.2854 16.7407C37.5422 16.7204 37.9005 16.6391 38.0151 16.4592C38.1965 16.1735 38.0166 15.876 37.7555 15.6178C35.3385 13.2212 32.9375 10.81 30.5321 8.40321C30.0331 7.90415 30.0171 7.90125 29.5021 8.42207C27.194 10.765 24.8815 13.1037 22.5878 15.4611C22.3397 15.7165 21.8233 15.8804 22.0365 16.4012C22.2483 16.9191 22.7314 16.7349 23.1159 16.745C24.0139 16.7668 24.2692 17.0076 24.2692 17.894C24.2692 20.0847 24.2721 22.2753 24.2663 24.466C24.2663 24.8025 24.3026 25.1043 24.7248 25.113C25.4618 25.1261 26.1987 25.1174 26.985 25.1174C26.985 23.9277 27.0532 22.7874 26.9691 21.6588C26.8327 19.8265 28.4024 18.2335 30.2521 18.3626C31.7682 18.4685 33.0652 19.6843 33.0666 21.2148C33.0681 22.4958 33.0666 23.7769 33.0666 25.1203L33.0681 25.1174ZM37.6495 21.8575C41.1749 21.8575 44.6451 21.8735 48.1138 21.8445C48.8378 21.8386 49.5791 21.6065 49.862 20.8449C50.1347 20.1108 50.406 19.3245 50.4176 18.5585C50.4409 16.8814 50.084 15.2348 49.3934 13.7028C48.8276 12.4494 48.1371 11.2525 47.4755 10.0455C47.4088 9.92505 47.1447 9.84381 46.9823 9.85831C46.2395 9.9236 45.501 10.0977 44.7597 10.1093C42.8055 10.1427 40.8456 10.2021 38.9117 9.80319C38.6274 9.74516 38.3778 9.78723 38.2081 10.1253C37.8904 10.7563 37.5161 11.3598 37.1432 11.9619C37.0011 12.1911 37.0489 12.3217 37.2288 12.4972C37.9426 13.1907 38.6216 13.919 39.3484 14.5979C39.9809 15.1884 40.0636 16.5405 39.7444 17.1991C39.3194 18.0783 38.6201 18.5382 37.651 18.6339V21.8561L37.6495 21.8575ZM25.5372 4.18586C25.028 4.50938 24.5971 4.75746 24.1952 5.04471C23.5743 5.48864 22.9549 5.63226 22.2832 5.16367C22.1845 5.09403 22.0554 5.06647 21.9422 5.0186C20.3014 4.31933 20.5626 4.86191 20.1085 2.99624C19.8241 1.83129 19.8067 1.8487 18.5866 1.8603C18.2428 1.8632 18.1253 1.99812 18.0745 2.31729C17.9831 2.87583 17.8874 3.43872 17.7162 3.9755C17.6407 4.21053 17.4115 4.4557 17.1881 4.57466C16.5947 4.88803 15.9825 5.18253 15.3471 5.38999C15.0555 5.48574 14.671 5.42336 14.3664 5.3189C14.04 5.20719 13.7629 4.95476 13.4553 4.78067C12.4862 4.23519 12.4949 4.25115 11.7057 5.02585C11.4489 5.27683 11.4184 5.48429 11.6085 5.76719C11.8957 6.19371 12.2352 6.59992 12.434 7.06416C12.5732 7.38768 12.6081 7.81855 12.5225 8.15948C12.3817 8.71947 12.093 9.24174 11.8899 9.78868C11.7289 10.2225 11.4562 10.4778 10.989 10.5677C10.3507 10.691 9.72397 10.8666 9.08418 11.0233V12.7018C9.50635 12.7874 9.93868 12.8193 10.326 12.9658C10.8512 13.166 11.5664 13.0036 11.8174 13.7754C12.006 14.3586 12.2976 14.9098 12.5384 15.4756C12.7256 15.9167 12.6879 16.3214 12.4021 16.7276C12.0495 17.2296 11.742 17.7635 11.4547 18.2205C11.8725 18.6644 12.1801 19.2636 12.6037 19.3593C12.9461 19.4377 13.4466 18.9386 13.8412 18.6484C14.494 18.1682 15.1237 18.0913 15.8302 18.5483C16.1653 18.7645 16.5628 18.9299 16.9545 19.0053C17.4783 19.1054 17.6364 19.4609 17.751 19.8845C17.8061 20.089 17.8279 20.3008 17.8671 20.5098C18.0411 21.4518 18.5818 21.901 19.489 21.8575C19.5064 21.8575 19.5311 21.8648 19.5427 21.8561C19.6718 21.7473 19.8763 21.6573 19.9155 21.5209C20.0591 21.0117 20.1447 20.4865 20.2579 19.9672C20.3624 19.487 20.5945 19.1228 21.108 18.9836C21.3982 18.9038 21.6767 18.779 21.9466 18.6804C21.5433 18.4033 21.108 18.2016 20.815 17.8723C20.5669 17.5937 20.3246 17.5792 20.0417 17.6315C18.0092 18.0145 16.2146 17.4501 14.8219 15.9994C13.1637 14.273 12.6937 12.181 13.4959 9.85541C14.4839 6.99162 17.1794 5.57569 20.0214 6.03557C22.479 6.43453 24.0734 8.01005 24.8742 10.5257C25.0817 10.3574 25.2151 10.1209 25.3979 9.93085C26.0217 9.28527 26.0624 9.27366 25.617 8.49315C25.2659 7.87658 25.2993 7.35286 25.7577 6.83204C25.839 6.74064 25.8984 6.62893 25.9652 6.52448C26.442 5.77396 26.3607 5.08243 25.7214 4.4499C25.6576 4.38752 25.6184 4.29902 25.5415 4.18441L25.5372 4.18586ZM19.0146 15.8818C19.6384 15.8775 20.2985 15.937 20.3972 15.0506C20.4044 14.9911 20.4842 14.9389 20.5335 14.8866C21.2546 14.1308 21.9466 13.3445 22.7097 12.6336C23.1086 12.2622 23.0956 11.8589 23.0637 11.4121C23.055 11.2917 22.9955 11.1756 22.9694 11.0552C22.4558 8.80507 20.535 7.47908 18.266 7.88384C16.2495 8.24507 14.8002 10.1383 15.0149 12.3188C15.1962 14.1569 17.0517 15.9674 19.0161 15.8818H19.0146ZM37.8207 1.88642C37.7787 1.91543 37.7351 1.94445 37.6931 1.97346C37.9034 3.15292 38.3662 4.21923 39.2004 5.11435C39.2555 5.17383 39.3498 5.22025 39.4296 5.2275C40.2275 5.3073 41.0269 5.43206 41.8263 5.43931C43.0478 5.45092 44.2737 5.4161 45.4923 5.32761C46.1684 5.27828 46.9228 5.29279 47.2666 4.46151C47.5988 3.65779 47.9876 2.87728 48.3503 2.08662C48.2995 2.046 48.2502 2.00538 48.1994 1.96476C48.0718 1.99522 47.9296 1.99812 47.8193 2.06051C47.3711 2.31004 46.9445 2.60164 46.4846 2.82941C46.0509 3.04557 45.5968 3.3038 45.0847 3.06153C44.384 2.73075 43.6919 2.38112 42.9419 2.01263C42.5531 2.23169 42.0903 2.45801 41.6623 2.73801C40.7745 3.31831 39.9403 3.21095 39.0989 2.63791C38.6912 2.36081 38.2473 2.13595 37.8193 1.88642H37.8207ZM31.1574 25.1043C31.1879 25.026 31.2111 24.9926 31.2111 24.9607C31.2155 23.8015 31.2198 22.6438 31.2198 21.4847C31.2198 20.7303 30.7599 20.2341 30.0621 20.2254C29.3512 20.2167 28.8406 20.7317 28.8333 21.4818C28.8246 22.3508 28.8319 23.2198 28.8319 24.0888C28.8319 24.4239 28.8319 24.759 28.8319 25.1028H31.1574V25.1043ZM38.3024 7.87513C39.5051 8.01005 40.6816 8.21316 41.8654 8.25668C43.1392 8.30456 44.4188 8.22912 45.6925 8.15513C46.2511 8.12176 46.8024 7.95492 47.358 7.85337C47.8295 7.76778 47.7439 7.39928 47.7018 7.10043C47.6917 7.03515 47.3812 6.96116 47.2187 6.97857C46.3526 7.06996 45.4923 7.26291 44.6277 7.28177C42.5197 7.32965 40.4031 7.39203 38.3024 6.86396V7.87513Z" fill="#201932" fill-opacity="0.7"/>
<path d="M14.9844 43.2041C15.3558 43.9904 15.9637 44.6723 15.9289 45.6704C15.8955 46.6671 15.5111 47.3896 14.6885 47.8857C13.7324 48.4631 12.772 49.0347 11.7812 49.5497C10.8715 50.0227 9.17997 49.9211 8.50246 48.7489C7.50725 47.0312 6.48737 45.328 5.48634 43.6133C4.45051 41.8375 3.42627 40.056 2.39914 38.2759C1.68246 37.0326 0.913564 35.8125 0.273782 34.5301C-0.321028 33.3376 0.0489146 31.8186 1.42713 31.0555C2.3266 30.5579 3.18545 29.9878 4.09507 29.509C5.13236 28.9635 6.82539 29.0955 7.57543 30.4114C7.58414 30.4273 7.59864 30.4404 7.60735 30.4549C8.29065 31.6837 8.2776 31.659 9.47447 30.9496C11.5476 29.7208 13.6367 28.5167 15.7301 27.3213C16.3728 26.9542 17.0184 26.5509 17.7162 26.3362C18.6476 26.049 19.6167 26.1563 20.5684 26.4146C24.558 27.4968 28.5504 28.5718 32.5458 29.6323C34.722 30.2097 35.8042 32.0696 35.3574 34.5112C35.9261 34.1819 36.4324 33.8888 36.9402 33.5972C38.7202 32.5701 40.4989 31.5415 42.2804 30.5173C44.0938 29.4756 45.9044 28.4282 47.7265 27.4011C49.4935 26.4058 51.6798 26.9064 52.9275 28.3005C54.5552 30.1183 54.31 33.133 52.3399 34.4619C51.0647 35.3222 49.7097 36.0664 48.3794 36.8469C46.621 37.8784 44.854 38.8925 43.0914 39.9138C41.3577 40.9177 39.6255 41.9231 37.8904 42.9227C36.6776 43.6205 35.4314 44.2646 34.2505 45.0132C32.7562 45.962 31.1908 46.0694 29.5384 45.6225C25.5982 44.5591 21.6565 43.5015 17.7235 42.4149C16.9691 42.206 16.3322 42.3613 15.7084 42.7573C15.469 42.9096 15.2253 43.0547 14.9844 43.2027V43.2041ZM31.3983 44.1355C31.9568 43.9295 32.6416 43.7743 33.2248 43.4435C35.9072 41.9246 38.5578 40.3491 41.2271 38.8069C44.3724 36.9891 47.5234 35.1858 50.6716 33.3724C51.5783 32.8501 52.234 32.0827 52.1557 31.0207C52.0411 29.4597 50.4612 28.2672 48.9205 28.92C48.5157 29.0912 48.1211 29.2972 47.7396 29.5177C45.5634 30.7784 43.3931 32.0522 41.2184 33.3172C39.1511 34.5199 37.0823 35.7211 35.0078 36.9122C34.1184 37.4229 33.1856 37.684 32.1454 37.4026C30.287 36.8977 28.4213 36.4219 26.5586 35.933C24.8336 35.4803 23.1058 35.032 21.3852 34.5649C20.8614 34.4227 20.6047 33.9338 20.7512 33.4667C20.934 32.8791 21.3387 32.6484 21.9219 32.8022C25.0498 33.6219 28.1805 34.4285 31.3011 35.27C32.2484 35.5253 33.4946 34.7738 33.615 33.5624C33.7122 32.5919 33.0028 31.6706 32.0555 31.4197C28.1123 30.3737 24.1648 29.3407 20.2318 28.2541C19.1902 27.9669 18.253 27.9857 17.3129 28.5399C15.5285 29.5932 13.7266 30.6188 11.9349 31.659C11.1225 32.1305 10.3188 32.6165 9.50638 33.088C9.30618 33.2041 9.22494 33.281 9.37437 33.5349C10.7656 35.9025 12.141 38.2803 13.5148 40.6581C14.0487 41.5807 14.0255 41.5546 14.9627 41.0251C15.7403 40.587 16.5556 40.2664 17.5015 40.526C18.813 40.8858 20.1433 41.1789 21.4592 41.5256C23.953 42.1843 26.4396 42.8632 28.932 43.5262C29.6994 43.7308 30.4741 43.9078 31.3968 44.1355H31.3983ZM14.1285 45.7488C14.0414 45.492 14.011 45.3121 13.9254 45.1627C13.4292 44.2835 12.92 43.4116 12.4137 42.5368C11.2966 40.6044 10.1781 38.6734 9.06391 36.7396C8.06434 35.0045 7.07782 33.2636 6.07245 31.5328C5.7852 31.0396 5.32821 30.9525 4.84801 31.2398C4.04284 31.7214 3.23767 32.2045 2.42525 32.6746C1.83479 33.0169 1.71583 33.3158 2.04805 33.899C3.02877 35.6239 4.02834 37.3373 5.0221 39.0535C6.04198 40.8162 7.06186 42.5803 8.0861 44.3415C8.69977 45.3977 9.31634 46.4524 9.93581 47.5056C10.1795 47.9205 10.519 48.0859 10.9687 47.8349C11.8798 47.3228 12.7909 46.8107 13.6831 46.2696C13.8732 46.155 13.9892 45.9156 14.1285 45.7473V45.7488Z" fill="#201932" fill-opacity="0.7"/>
<path d="M30.0256 14.0345C30.7844 14.0345 31.5446 14.0316 32.3033 14.0345C32.9344 14.0374 33.2695 14.3377 33.2855 14.9078C33.3014 15.4852 32.9866 15.8639 32.386 15.8726C30.8497 15.8944 29.3133 15.8944 27.777 15.8726C27.1821 15.8639 26.7774 15.433 26.7803 14.9078C26.7817 14.4407 27.2808 14.0345 27.8567 14.0345C28.5792 14.0345 29.3032 14.0345 30.0256 14.0345Z" fill="#201932" fill-opacity="0.7"/>
<path d="M41.98 14.5891C42.6271 14.7443 43.1827 14.8749 43.7384 15.0142C44.5783 15.2245 45.3139 15.551 45.5866 16.4925C45.8695 17.4703 45.4531 18.5366 44.5537 18.9936C44.2273 19.159 43.9139 19.2504 43.8791 19.7451C43.8486 20.1905 43.2538 20.5038 42.8128 20.4429C42.3282 20.3762 42.1121 20.0512 42.0627 19.349C41.6971 19.1445 41.3272 18.9747 40.9993 18.747C40.5162 18.4118 40.2812 17.5719 40.5235 17.1802C40.8644 16.626 41.5869 16.5708 42.0714 17.1366C42.5096 17.6487 43.1058 17.6357 43.5396 17.4166C43.6513 17.36 43.7267 17.2324 43.8196 17.1381C43.7224 17.0496 43.6397 16.9118 43.5265 16.8798C42.9332 16.7145 42.3268 16.5926 41.7349 16.4229C40.8064 16.1559 40.3015 15.49 40.2565 14.5572C40.2145 13.6664 40.6787 12.9918 41.4549 12.5595C41.7914 12.3724 42.1324 12.2897 42.1179 11.75C42.1063 11.3133 42.5763 11.1363 42.9462 11.19C43.2523 11.2335 43.7253 11.4424 43.7775 11.6629C43.9066 12.1939 44.2171 12.4304 44.6465 12.6654C45.1398 12.9352 45.5213 13.3299 45.5605 13.9493C45.5895 14.402 45.488 14.7574 44.9933 14.9054C44.5044 15.0504 44.1228 14.8822 43.837 14.5093C43.3641 13.8898 42.6169 13.855 41.9786 14.592L41.98 14.5891Z" fill="#201932" fill-opacity="0.7"/>
</svg>
