<svg width="54" height="54" viewBox="0 0 54 54" fill="none" xmlns="http://www.w3.org/2000/svg">
<path d="M54.0011 14.3247C53.6806 15.0317 53.3983 15.7427 52.7586 16.2716C51.5148 17.2992 49.5877 17.3941 48.2726 16.4444C47.2767 15.7255 46.8322 14.7125 46.7504 13.5386C46.7214 13.1244 46.8546 12.6865 46.9773 12.2789C47.0511 12.0336 47.0551 11.9214 46.8111 11.7829C45.4485 11.0139 44.1031 10.2146 42.7339 9.4588C42.602 9.38626 42.2947 9.48255 42.1522 9.60126C41.1577 10.4323 39.9917 10.9493 38.7346 10.8042C37.6939 10.6842 37.3325 11.0852 36.9038 11.9148C35.5373 14.5582 34.0626 17.1448 32.6301 19.7539C32.6222 19.7671 32.6275 19.7882 32.6249 19.8449C33.7896 20.7445 34.7116 21.8868 35.2669 23.2652C35.6085 24.1133 35.7312 25.0485 36.0003 25.9296C36.0807 26.1934 36.2693 26.4994 36.4962 26.6287C38.2453 27.6232 40.018 28.5756 41.7803 29.5464C42.3527 29.8616 42.916 30.1901 43.5227 30.5357C44.0939 29.8973 44.8813 29.6572 45.6807 29.6176C47.373 29.5319 49.0996 30.5396 49.4742 32.5749C49.8515 34.622 48.572 36.4093 46.7161 36.813C44.4988 37.2957 42.3791 35.7538 42.3145 33.5286C42.3026 33.1342 42.3923 32.7371 42.3923 32.3428C42.3923 32.2293 42.263 32.075 42.1522 32.009C41.4281 31.579 40.696 31.1635 39.96 30.752C38.699 30.0463 37.4354 29.3472 36.1717 28.6468C36.1005 28.6072 36.0227 28.5795 35.9409 28.5426C35.4885 31.1002 33.8489 33.4903 31.6936 34.7117C32.0669 36.6824 32.4455 38.6702 32.8161 40.6593C32.9361 41.3016 33.0615 41.9453 33.13 42.593C33.1723 42.9926 33.3305 43.1918 33.7223 43.2749C36.2258 43.8104 37.9617 46.2085 37.8759 48.6896C37.8324 49.9466 37.3879 51.052 36.578 52.0346C35.7747 53.0094 34.7459 53.5634 33.5587 53.8786C31.6936 54.3733 29.1202 53.4223 28.094 51.7867C27.6811 51.1298 27.4239 50.3753 27.1166 49.6564C27.0044 49.3939 26.9095 49.2409 26.5705 49.1525C23.9693 48.4693 21.384 47.728 18.7855 47.0302C18.6207 46.9854 18.3423 47.0948 18.2131 47.2268C17.6591 47.7926 17.0629 48.2411 16.278 48.4706C14.6385 48.9494 12.5386 47.9469 11.974 46.347C11.4754 44.9316 11.6258 43.5823 12.6533 42.4677C13.8708 41.1473 15.761 40.873 17.3636 41.9058C18.2975 42.5086 18.8409 43.3804 18.9188 44.5109C18.9465 44.9039 19.0902 45.1717 19.5189 45.2838C22.0211 45.9381 24.5181 46.6121 27.0348 47.2835C27.2392 46.8469 27.445 46.4037 27.656 45.9618C28.3129 44.5821 29.4763 43.7854 30.8639 43.3171C31.2583 43.1839 31.2874 42.9953 31.2372 42.7222C30.9101 40.9323 30.5619 39.145 30.2282 37.3564C30.124 36.7985 30.0409 36.2365 29.9301 35.5638C27.9476 36.16 25.9453 36.197 23.9812 35.4834C22.004 34.7645 20.4409 33.5035 19.3197 31.7043C16.6487 32.4232 14.0054 33.1342 11.362 33.8465C11.0388 33.9335 10.8726 34.0667 10.7671 34.4704C10.1683 36.7562 8.66853 38.252 6.34703 38.62C3.23279 39.1134 0.650114 37.1823 0.0987574 34.2026C-0.194068 32.6184 0.154157 31.0831 1.27929 29.7838C2.45587 28.4239 3.91209 27.738 5.68487 27.8198C7.30861 27.8936 8.70678 28.5241 9.66968 29.8867C10.1274 30.5344 10.4862 31.2532 10.9228 31.9945C13.3419 31.335 15.8968 30.6372 18.4531 29.9408C17.3174 25.9243 18.312 22.5766 21.4381 19.8C19.6113 16.67 17.762 13.5003 15.91 10.3241C14.0014 11.1524 12.1521 11.0403 10.4532 9.86902C9.13943 8.96285 8.37834 7.67943 8.15938 6.05174C7.9734 4.67071 8.31503 3.45719 9.05897 2.33865C9.85303 1.14228 10.965 0.379882 12.3882 0.0962896C12.4291 0.0883754 12.4594 0.0342949 12.4951 0.00131904C13.1968 0.00131904 13.8998 0.00131904 14.6016 0.00131904C14.6372 0.0342949 14.6675 0.0883754 14.7084 0.0962896C16.1527 0.381201 17.2766 1.16339 18.068 2.37822C18.7776 3.46643 19.1272 4.65092 18.9412 5.99634C18.7961 7.03705 18.4597 7.95642 17.7949 8.75576C17.5694 9.02748 17.51 9.26754 17.7026 9.58939C18.2408 10.4877 18.7512 11.4031 19.2789 12.3079C20.4752 14.3537 21.6835 16.3917 22.8666 18.4454C23.0394 18.7448 23.1713 18.7725 23.4773 18.6485C25.1749 17.9666 26.924 17.683 28.735 18.1156C29.4816 18.2937 30.2189 18.5087 31.0024 18.7184C32.5774 15.8324 34.1721 12.9094 35.7628 9.99697C35.4159 9.70151 35.0268 9.45221 34.7419 9.11586C33.6432 7.81529 33.0483 6.36435 33.3385 4.60212C33.5943 3.05357 34.3343 1.82423 35.6072 0.961577C36.2285 0.539486 36.9803 0.31393 37.6728 0C38.3745 0 39.0776 0 39.7793 0C39.7978 0.0276997 39.8123 0.073866 39.836 0.0791421C41.775 0.489362 43.0914 1.66726 43.801 3.4717C44.0635 4.13781 44.1638 4.91077 44.1506 5.63096C44.1374 6.3472 43.8881 7.05816 43.7364 7.79946C45.1227 8.59088 46.5446 9.38758 47.9481 10.2146C48.2699 10.4046 48.4797 10.3914 48.8187 10.212C49.9675 9.60522 51.5451 9.76878 52.6425 10.5905C53.3443 11.1155 53.6859 11.8647 53.9998 12.639V14.3247H54.0011ZM27.0348 34.1274C31.0776 33.9625 34.1681 31.0026 34.1602 26.9505C34.1523 22.9209 31.0855 19.8515 27.0572 19.8383C22.9999 19.8251 19.9107 22.9156 19.9054 26.9532C19.9001 31.0039 22.9906 33.9652 27.0348 34.1274ZM1.95992 33.2252C1.84516 35.1483 3.59816 36.722 5.27333 36.7721C7.39039 36.8354 9.00093 35.2235 8.98906 33.3056C8.97587 31.2717 7.57901 29.7785 5.41183 29.7231C3.55463 29.6757 1.86627 31.3878 1.9586 33.2252H1.95992ZM28.9289 48.5247C28.8247 50.4162 30.5685 51.9832 32.27 52.0531C34.3541 52.1388 35.9976 50.4109 35.9607 48.5616C35.9211 46.5105 34.4913 45.0503 32.4099 45.0029C30.5408 44.9593 28.8366 46.6081 28.9276 48.5247H28.9289ZM38.7096 1.89545C36.6598 1.87039 35.135 3.52578 35.1864 5.42651C35.2431 7.54225 36.6835 8.90085 38.728 8.91932C40.7396 8.93779 42.2195 7.43408 42.2525 5.41728C42.2842 3.43741 40.6551 1.84929 38.7109 1.89677L38.7096 1.89545ZM13.541 1.89545C11.5308 1.8361 9.9757 3.54952 10.0139 5.37771C10.0588 7.51982 11.5559 8.92723 13.5542 8.918C15.6251 8.90877 17.0602 7.43145 17.0813 5.36452C17.0998 3.47962 15.5064 1.82555 13.541 1.89545ZM44.2033 33.2806C44.2033 34.2461 44.9315 34.9254 45.9102 34.9821C46.6291 35.0243 47.6342 34.2923 47.6764 33.2502C47.7107 32.4153 46.7676 31.4761 45.8957 31.4999C45.0726 31.5223 44.1611 32.2108 44.2033 33.2806ZM13.6532 44.9066C13.6532 45.9328 14.3641 46.6662 15.3547 46.6609C16.3743 46.6556 17.0484 45.8418 17.0985 44.9514C17.1499 44.036 16.2411 43.1707 15.3481 43.1905C14.5752 43.2076 13.5358 43.8672 13.6532 44.9066ZM52.1057 13.4964C52.1927 12.6179 51.4119 11.7777 50.3553 11.7328C49.5217 11.6972 48.6498 12.6166 48.63 13.4674C48.6116 14.3102 49.5388 15.2889 50.3738 15.2349C51.4541 15.165 52.1809 14.3181 52.1057 13.4964Z" fill="#201932" fill-opacity="0.7"/>
<path d="M27.9804 22.4444C27.9752 23.0485 27.5425 23.4521 26.701 23.4772C25.1907 23.5207 23.5801 25.056 23.534 26.6587C23.5234 27.0109 23.3295 27.4158 23.0934 27.6888C22.8349 27.9869 22.3429 28.0766 22.0646 27.7733C21.8021 27.487 21.5712 27.0254 21.591 26.6534C21.6359 25.7485 21.905 24.8727 22.4036 24.0918C22.8639 23.3716 23.4496 22.782 24.1803 22.3283C24.9691 21.8389 25.841 21.6266 26.7432 21.492C27.3644 21.3997 27.9844 21.8745 27.9791 22.4444H27.9804Z" fill="#201932" fill-opacity="0.7"/>
</svg>
