<svg width="54" height="46" viewBox="0 0 54 46" fill="none" xmlns="http://www.w3.org/2000/svg">
<path d="M7.15979 19.8711C7.12368 16.4965 7.98125 13.3596 9.54294 10.4108C10.7511 8.12991 12.3955 6.19059 14.3784 4.5266C16.4682 2.77234 18.8288 1.53713 21.4286 0.76381C23.0234 0.289889 24.6558 0.0386349 26.3348 0.00553559C28.8955 -0.0456179 31.3779 0.252276 33.7987 1.1279C35.8794 1.88016 37.7691 2.94836 39.5038 4.30393C40.2094 4.85609 40.2245 5.49701 39.5941 6.12891C30.8514 14.8716 22.1071 23.6144 13.3644 32.3586C12.7099 33.0131 12.0675 32.983 11.4988 32.2578C9.44514 29.6369 8.10011 26.6836 7.49228 23.4173C7.27563 22.2558 7.2651 21.0552 7.16129 19.8726L7.15979 19.8711ZM9.12318 18.8812C9.2646 18.9143 9.31726 18.9353 9.36841 18.9353C11.6944 18.9383 14.0204 18.9323 16.3448 18.9444C16.739 18.9459 16.8052 18.7157 16.8112 18.4163C16.8203 18.004 16.7631 17.5828 16.8278 17.1796C17.1091 15.4479 17.4236 13.7237 17.7305 11.9739C17.6884 11.9514 17.5951 11.8777 17.4913 11.8551C15.6994 11.4714 13.9 11.1224 12.1187 10.6921C11.6914 10.5883 11.5575 10.6966 11.4085 11.0276C11.0775 11.7663 10.7104 12.487 10.39 13.2302C9.61666 15.0221 9.26159 16.9087 9.12167 18.8812H9.12318ZM9.1307 20.7663C9.35186 24.3425 10.4998 27.5351 12.5881 30.4388C14.0625 28.9614 15.5053 27.49 16.9858 26.0547C17.2882 25.7613 17.2957 25.4724 17.2566 25.1309C17.1121 23.8686 16.9316 22.6093 16.8308 21.3425C16.7947 20.8897 16.6984 20.7257 16.22 20.7317C14.0264 20.7543 11.8313 20.7407 9.63772 20.7422C9.49329 20.7422 9.34735 20.7558 9.1292 20.7663H9.1307ZM18.7099 18.9398C20.0174 18.9398 21.3519 18.8676 22.6743 18.9624C23.7034 19.0361 24.3895 18.675 25.1101 17.9634C25.888 17.1961 26.3017 16.4408 26.1814 15.332C26.0851 14.4504 26.1618 13.5507 26.1618 12.7217C23.9893 12.5727 21.9025 12.4283 19.7631 12.2824C19.1568 14.3766 18.7069 16.5853 18.7099 18.9398ZM26.1347 10.7959V1.82901C25.8473 1.96592 25.5765 2.01857 25.4276 2.18257C24.9687 2.68658 24.5174 3.20564 24.1367 3.76983C23.2536 5.07875 22.3704 6.39219 21.5745 7.75528C21.1036 8.5617 20.8027 9.46592 20.383 10.4213C22.3704 10.5507 24.2345 10.6725 26.1347 10.7959ZM27.9913 10.7192C28.2004 10.7192 28.3825 10.7252 28.5645 10.7192C29.5319 10.6831 30.4993 10.6244 31.4682 10.6139C32.1753 10.6063 32.7832 10.4198 33.1894 9.81647C33.2781 9.68407 33.3127 9.44034 33.2541 9.29741C32.1919 6.70062 30.6272 4.41677 28.8127 2.29691C28.6367 2.09079 28.3298 1.99601 27.9913 1.79591V10.7207V10.7192ZM22.6141 2.42931C18.5715 3.58778 15.3504 5.64295 12.8709 8.86261C12.9777 8.91075 13.0274 8.94235 13.08 8.95438C14.7425 9.31847 16.4065 9.68257 18.0705 10.0406C18.3744 10.1068 18.4948 9.94435 18.6272 9.66301C19.39 8.05468 20.1558 6.44636 20.9938 4.87715C21.4301 4.0602 22.0138 3.32299 22.6126 2.42931H22.6141ZM37.6006 5.31195C35.8027 4.03161 33.8153 3.05819 31.6472 2.47444C32.7651 4.34907 33.8649 6.19209 34.9316 7.98096C35.7621 7.15047 36.6738 6.23873 37.6006 5.31195ZM18.9281 23.8611C19.9828 22.8064 21.0269 21.7623 22.0229 20.7663H18.6618C18.7536 21.836 18.8438 22.8817 18.9281 23.8611ZM27.9973 12.66V14.8491C28.724 14.1329 29.4717 13.3942 30.218 12.66H27.9973Z" fill="#201932" fill-opacity="0.7"/>
<path d="M28.8658 39.6609C27.9872 39.6609 27.1838 39.6563 26.3789 39.6609C23.9656 39.6759 21.6788 39.1072 19.4521 38.2135C17.7144 37.5139 16.1406 36.545 14.6587 35.4151C13.929 34.8584 13.8944 34.1919 14.5368 33.5495C23.2796 24.8068 32.0223 16.0656 40.765 7.32284C41.418 6.66989 42.0649 6.69847 42.6306 7.42515C44.6752 10.049 46.1015 12.9843 46.6176 16.2672C46.8989 18.0636 46.9696 19.9307 46.8463 21.7451C46.6642 24.4216 45.8488 26.9658 44.5504 29.3324C43.3452 31.529 41.8182 33.4713 39.8488 35.0345C37.9275 36.5585 36.3914 38.4512 34.7515 40.2476C34.2745 40.7712 33.7901 41.2872 33.3086 41.8063C32.412 42.7767 31.5092 43.7441 30.6201 44.722C30.253 45.1268 29.7956 45.1448 29.3382 45.0154C28.8763 44.8845 28.8598 44.4708 28.8628 44.0616C28.8718 42.6202 28.8658 41.1774 28.8658 39.6609ZM41.5654 9.29075C33.2108 17.6438 24.8683 25.9878 16.4099 34.4447C17.6813 35.1037 18.9135 35.7852 20.1818 36.39C21.6682 37.0987 23.257 37.4613 24.8939 37.6463C26.3488 37.8103 27.7961 37.8193 29.248 37.6433C30.11 37.538 30.7495 37.6914 30.6772 38.8424C30.6186 39.7647 30.6652 40.693 30.6652 41.7341C31.8778 40.4417 33.0047 39.2561 34.1151 38.0555C34.6567 37.4703 35.1607 36.8519 35.7008 36.2637C36.2545 35.6604 36.754 34.9683 37.4099 34.5064C39.3658 33.1313 40.9741 31.4327 42.2409 29.4377C43.768 27.0335 44.7129 24.375 44.94 21.533C45.0845 19.723 45.0529 17.889 44.6346 16.0896C44.0584 13.6117 43.0639 11.3279 41.5654 9.29075Z" fill="#201932" fill-opacity="0.7"/>
<path d="M6.01524 33.2474C6.45606 31.8031 6.69829 32.0137 7.32567 32.0122C7.76047 32.0122 8.03128 32.277 8.02226 32.7088C8.00721 33.3949 7.95154 34.0809 7.88535 34.764C7.84623 35.1642 7.78154 35.5659 7.67923 35.954C7.58745 36.3046 7.33469 36.5468 6.94803 36.5017C5.79708 36.3678 4.64162 36.2459 3.50119 36.0443C2.91443 35.9405 2.75195 35.5629 2.85425 34.9009C2.937 34.3668 3.30561 34.2299 3.78555 34.2539C3.97211 34.263 4.15867 34.2555 4.41142 34.2555C4.05486 33.6446 3.72537 33.0789 3.39437 32.5132C1.97562 30.0819 1.01875 27.4927 0.454554 24.7244C-0.0103403 22.4285 -0.0750344 20.1206 0.0663899 17.8186C0.230382 15.1346 0.871305 12.5288 1.94402 10.0403C2.82266 8.0032 3.89688 6.08193 5.26298 4.3382C5.937 3.47612 6.70882 2.68775 7.46408 1.89337C7.88083 1.45556 8.42547 1.48414 8.84071 1.89788C9.19427 2.24994 9.17171 2.86829 8.78805 3.26097C7.01423 5.08444 5.49919 7.105 4.37231 9.38434C3.26047 11.6321 2.41494 13.9866 2.18926 16.5022C2.03279 18.2489 1.87782 20.0182 1.98464 21.7605C2.14563 24.3738 2.78956 26.9119 3.92697 29.2891C4.54984 30.592 5.27201 31.8452 6.01524 33.2459V33.2474Z" fill="#201932" fill-opacity="0.7"/>
<path d="M47.7382 6.31083C47.5712 6.7667 47.4628 7.19248 46.9167 7.22859C46.4653 7.25868 46.0441 7.23611 45.859 6.72758C45.8034 6.57563 45.7642 6.40863 45.7627 6.24915C45.7537 5.40512 45.7552 4.56108 45.7597 3.71555C45.7642 3.03701 46.0742 2.72257 46.7301 2.72106C47.6494 2.72106 48.5686 2.71805 49.4879 2.72106C50.0235 2.72257 50.3786 3.09268 50.3741 3.62979C50.3696 4.16239 50.0115 4.51143 49.4683 4.52197C49.2908 4.52498 49.1133 4.54002 49.023 4.54453C49.8926 6.09569 50.8149 7.61525 51.6138 9.19799C52.6609 11.2742 53.2763 13.4964 53.6524 15.7953C53.9428 17.5676 54.0661 19.3489 53.9638 21.1318C53.7998 23.9934 53.2026 26.7707 52.1073 29.4322C51.0902 31.9011 49.6985 34.1428 48.0165 36.2085C47.6644 36.6403 47.2552 37.0255 46.9001 37.4543C46.5707 37.853 46.1359 37.9312 45.6905 37.8334C45.4769 37.7868 45.2015 37.5716 45.1399 37.3745C45.006 36.9487 45.0541 36.5305 45.3836 36.1303C46.4187 34.8815 47.4929 33.6509 48.4016 32.3118C50.0506 29.8851 51.0481 27.1739 51.6228 24.2973C51.9974 22.4272 52.1629 20.5405 52.0471 18.6478C51.8906 16.0872 51.364 13.5987 50.3951 11.202C49.7031 9.48837 48.8154 7.89509 47.7367 6.30782L47.7382 6.31083Z" fill="#201932" fill-opacity="0.7"/>
<path d="M28.8655 28.8563C28.8655 30.0313 28.2351 30.6527 27.0436 30.6512C25.8776 30.6512 25.2622 30.0163 25.2622 28.8157C25.2622 27.6677 25.9107 27.0479 27.1128 27.0479C28.2366 27.0479 28.8655 27.6978 28.8655 28.8563Z" fill="#201932" fill-opacity="0.7"/>
<path d="M32.4448 30.6521C31.2833 30.6521 30.668 30.0127 30.668 28.8121C30.668 27.6642 31.3164 27.0488 32.523 27.0488C33.6604 27.0488 34.2728 27.7033 34.2713 28.9174C34.2713 30.0293 33.6138 30.6521 32.4448 30.6521Z" fill="#201932" fill-opacity="0.7"/>
<path d="M39.677 28.8663C39.677 30.0368 39.0451 30.6521 37.846 30.6521C36.6921 30.6521 36.0737 30.0082 36.0737 28.8061C36.0737 27.6612 36.7237 27.0473 37.9333 27.0488C39.0512 27.0488 39.677 27.7018 39.677 28.8663Z" fill="#201932" fill-opacity="0.7"/>
</svg>
