<svg width="54" height="54" viewBox="0 0 54 54" fill="none" xmlns="http://www.w3.org/2000/svg">
	<path d="M19.8133 41.4014H13.9332C10.1293 41.4014 6.32385 41.4014 2.51993 41.4014C1.1483 41.4014 0.0215463 40.2732 0.0215463 38.9C0.0215463 36.3506 0.0200439 33.8026 0.0215463 31.2531C0.0215463 29.9596 1.17083 28.8118 2.46284 28.8073C2.8189 28.8073 3.17345 28.8073 3.57457 28.8073V27.0075C3.18397 27.0075 2.77984 27.012 2.37421 27.0075C1.19637 26.994 0.024551 25.8237 0.0215463 24.6428C0.0155369 22.0198 0.0155369 19.3952 0.0215463 16.7721C0.024551 15.5928 1.19938 14.4269 2.38022 14.4149C2.77082 14.4104 3.16143 14.4149 3.58359 14.4149V12.6737C2.97664 12.6166 2.38322 12.6046 1.80782 12.4979C0.906423 12.3282 -0.0250262 11.0767 0.000513565 10.0461C0.0636117 7.53573 0.0621094 5.02232 0.00351824 2.51341C-0.0250262 1.31155 1.31205 -0.00299953 2.52744 5.14125e-06C13.4539 0.0315542 24.3789 0.0180332 35.3054 0.0180332C36.6801 0.0180332 37.8053 1.14328 37.8053 2.51792C37.8053 5.06739 37.8068 7.61535 37.8053 10.1648C37.8053 11.4583 36.656 12.6076 35.3655 12.6121C35.0095 12.6121 34.6534 12.6121 34.2523 12.6121V14.4119C34.4716 14.4119 34.709 14.43 34.9434 14.4089C36.1888 14.2947 37.0211 14.8791 37.6055 15.9278C37.6776 16.057 37.8654 16.1907 38.0066 16.2012C39.8755 16.3304 41.7565 16.359 43.6149 16.5678C46.3521 16.8758 49.0593 17.3911 51.5682 18.6019C52.378 18.9925 53.1742 19.4733 53.6294 20.3026C53.8172 20.6436 53.9825 21.0523 53.9825 21.4308C54.002 30.5395 53.9975 39.6467 53.9975 48.7553C53.9975 49.7048 53.4431 50.3208 52.7446 50.8526C51.3414 51.9208 49.7038 52.4856 48.0212 52.8432C46.1208 53.2473 44.1903 53.6034 42.2552 53.7416C39.4669 53.9399 36.6605 54.0571 33.8692 53.964C30.504 53.8513 27.1598 53.4051 23.9463 52.3084C22.7083 51.8862 21.5125 51.3634 20.5615 50.4169C20.0567 49.9137 19.7938 49.3277 19.8028 48.5871C19.8284 46.4132 19.8118 44.2393 19.8118 42.0654V41.4029L19.8133 41.4014ZM21.6131 42.429C21.6131 44.352 21.5876 46.3561 21.6387 48.3572C21.6477 48.6892 21.9226 49.1204 22.2051 49.3157C22.7729 49.7093 23.4009 50.0699 24.0574 50.2682C25.5252 50.7129 27.0095 51.1456 28.5179 51.4055C30.3853 51.727 32.2797 51.9208 34.1697 52.068C35.4391 52.1656 36.7221 52.1011 37.9976 52.0815C38.9276 52.068 39.862 52.0605 40.7845 51.9643C42.6158 51.7735 44.4547 51.6053 46.262 51.2733C47.9326 50.9668 49.5761 50.4936 51.0935 49.6673C51.8522 49.2541 52.2518 48.7148 52.2112 47.8149C52.1617 46.6926 52.1992 45.5674 52.1992 44.4421C52.1992 43.739 52.1992 43.0375 52.1992 42.2668C51.6418 42.5282 51.1716 42.773 50.6834 42.9714C49.0293 43.6384 47.3211 44.1146 45.5469 44.334C43.72 44.5608 41.8947 44.9244 40.0618 44.968C36.8619 45.0431 33.6469 45.1693 30.4619 44.6615C28.9956 44.4271 27.5113 44.2498 26.0751 43.8848C24.5772 43.5047 23.1275 42.9323 21.6116 42.429H21.6131ZM21.6131 33.4315C21.6131 35.3515 21.5876 37.3541 21.6387 39.3552C21.6477 39.6872 21.9181 40.1199 22.2005 40.3167C22.7669 40.7103 23.3949 41.0724 24.0514 41.2707C25.5192 41.7154 27.0035 42.1496 28.5119 42.405C30.4168 42.728 32.3473 42.9218 34.2748 43.0705C35.5443 43.1682 36.8273 43.1021 38.1043 43.084C38.9967 43.0705 39.8936 43.0615 40.7799 42.9668C42.6098 42.773 44.4502 42.6063 46.2575 42.2758C47.9296 41.9708 49.5731 41.4991 51.089 40.6713C51.8402 40.2611 52.2443 39.7308 52.2157 38.8234C52.1647 37.1768 52.2007 35.5258 52.2007 33.8777C52.2007 33.6989 52.2007 33.5186 52.2007 33.2407C50.0358 34.4321 47.7763 35.03 45.4522 35.374C43.6659 35.6384 41.8676 35.9359 40.0693 35.9735C36.8694 36.0411 33.6544 36.1733 30.4694 35.664C29.0031 35.4296 27.5173 35.2538 26.0826 34.8903C24.5848 34.5102 23.135 33.9363 21.6131 33.43V33.4315ZM21.6131 24.44C21.6131 26.354 21.5876 28.3566 21.6387 30.3577C21.6477 30.6897 21.9181 31.1239 22.199 31.3192C22.7654 31.7143 23.3934 32.0764 24.0499 32.2747C25.5177 32.7194 27.002 33.1536 28.5104 33.409C30.4153 33.732 32.3458 33.9258 34.2733 34.0745C35.5428 34.1722 36.8258 34.1061 38.1028 34.088C38.9952 34.0745 39.8921 34.0655 40.7784 33.9708C42.6083 33.777 44.4487 33.6103 46.256 33.2798C47.9281 32.9748 49.5716 32.5031 51.0875 31.6753C51.8386 31.2651 52.2443 30.7363 52.2157 29.8274C52.1647 28.1808 52.2007 26.5298 52.2007 24.8817C52.2007 24.7029 52.2007 24.5227 52.2007 24.2447C50.0373 25.4331 47.7778 26.034 45.4522 26.3765C43.6659 26.6394 41.8676 26.9384 40.0693 26.976C36.8694 27.0421 33.6544 27.1788 30.4694 26.6665C28.9851 26.4276 27.4873 26.2353 26.033 25.8687C24.5517 25.4947 23.117 24.9343 21.6116 24.4385L21.6131 24.44ZM18.9179 10.8153C24.1461 10.8153 29.3742 10.8153 34.6023 10.8153C35.5999 10.8153 36.0055 10.4067 36.007 9.40614C36.01 7.36296 36.0085 5.32128 36.007 3.2781C36.007 2.20694 35.6164 1.81934 34.5392 1.81934C24.1205 1.81934 13.7018 1.81934 3.28162 1.81934C2.20895 1.81934 1.82135 2.20844 1.82135 3.28562C1.82135 5.29124 1.82135 7.29535 1.82135 9.30097C1.82135 10.4473 2.19242 10.8153 3.34622 10.8153C8.53679 10.8153 13.7274 10.8153 18.9179 10.8153ZM38.8029 25.0965C38.8044 25.1191 38.8074 25.1416 38.8089 25.1642C39.9356 25.0665 41.0684 25.0214 42.1861 24.8622C44.0025 24.6038 45.8173 24.3213 47.6156 23.9563C49.0188 23.6708 50.3664 23.169 51.5788 22.3773C52.2473 21.9401 52.2578 21.2791 51.5863 20.8585C51.0274 20.5084 50.446 20.1689 49.83 19.942C46.6962 18.7822 43.415 18.3616 40.1084 18.1407C38.8374 18.0551 37.5544 18.1452 36.2789 18.1227C33.8046 18.0791 31.3513 18.2699 28.9145 18.6876C26.8323 19.0451 24.7725 19.4778 22.8826 20.4829C22.3823 20.7488 21.7378 20.9621 21.7528 21.6337C21.7664 22.2661 22.3853 22.484 22.8706 22.7394C24.6298 23.6618 26.5348 24.087 28.4728 24.446C30.6061 24.8411 32.75 25.0665 34.9163 25.095C36.2113 25.1131 37.5079 25.098 38.8044 25.098L38.8029 25.0965ZM19.8148 25.2092C19.8148 24.1005 19.8824 23.0489 19.7983 22.0107C19.6796 20.5309 20.4428 19.595 21.6206 18.9925C22.7519 18.4141 23.9523 17.9394 25.1647 17.5548C27.2003 16.9088 29.3141 16.6189 31.4414 16.4371C32.0589 16.3845 32.6778 16.3274 33.2953 16.2733V16.2117H32.7455C22.9307 16.2117 13.1144 16.2117 3.29965 16.2117C2.20294 16.2117 1.82285 16.5993 1.82285 17.7171C1.82285 19.7212 1.82285 21.7253 1.82285 23.7294C1.82285 24.8276 2.21045 25.2077 3.32669 25.2077C7.59783 25.2077 11.869 25.2077 16.1386 25.2077C17.336 25.2077 18.5333 25.2077 19.8148 25.2077V25.2092ZM19.7938 30.6071H19.1854C13.8866 30.6071 8.58637 30.6071 3.28763 30.6071C2.21195 30.6071 1.82285 30.9962 1.82285 32.0674C1.82285 34.0715 1.82285 36.0741 1.82285 38.0782C1.82285 39.232 2.19242 39.6031 3.3357 39.6031C8.61642 39.6031 13.8971 39.6031 19.1778 39.6031H19.7953V30.6056L19.7938 30.6071ZM10.8444 14.3759H26.9675V12.6422H10.8444V14.3759ZM10.8444 28.7698H19.7698V27.0376H10.8444V28.7698ZM5.43296 14.3684H8.98148V12.6572H5.43296V14.3684ZM32.3849 12.6542H28.8559V14.3849H32.3849V12.6542ZM5.42996 28.7728H8.97848V27.0511H5.42996V28.7728Z" fill="#201932" fill-opacity="0.7" />
	<path d="M37.7709 49.4875H36.0537V47.7402H37.7709V49.4875Z" fill="#201932" fill-opacity="0.7" />
	<path d="M37.7812 39.6318V41.361H36.0415V39.6318H37.7812Z" fill="#201932" fill-opacity="0.7" />
	<path d="M36.0371 29.7314H37.7663V31.4712H36.0371V29.7314Z" fill="#201932" fill-opacity="0.7" />
	<path d="M16.2153 6.388C16.2153 6.96791 16.2183 7.54931 16.2153 8.12921C16.2108 8.77522 15.9854 9.00958 15.3544 9.01259C14.1375 9.0186 12.9206 9.01709 11.7037 9.01259C11.0577 9.00958 10.8234 8.78423 10.8204 8.15325C10.8144 6.93636 10.8159 5.71946 10.8204 4.50257C10.8234 3.85657 11.0487 3.6222 11.6797 3.6192C12.8966 3.61319 14.1135 3.61469 15.3304 3.6192C15.9914 3.6222 16.2108 3.85356 16.2153 4.53562C16.2183 5.15308 16.2153 5.77205 16.2153 6.38951V6.388ZM12.6397 7.17373H14.3899V5.44754H12.6397V7.17373Z" fill="#201932" fill-opacity="0.7" />
	<path d="M6.31629 9.01411C5.6793 9.01411 5.0423 9.02312 4.40682 9.0111C3.87048 9.00059 3.62861 8.76171 3.6241 8.22238C3.61358 6.9499 3.61358 5.67591 3.6241 4.40193C3.62861 3.8656 3.87349 3.62372 4.41283 3.61922C5.6853 3.6087 6.95929 3.6087 8.23327 3.61922C8.7696 3.62372 9.01148 3.8686 9.01599 4.40794C9.0265 5.68042 9.0265 6.9544 9.01599 8.22839C9.01148 8.76472 8.7666 9.00209 8.22726 9.0111C7.59027 9.02312 6.95478 9.01411 6.31779 9.01411H6.31629ZM5.45394 5.42653V7.17675H7.17412V5.42653H5.45394Z" fill="#201932" fill-opacity="0.7" />
	<path d="M18.042 8.97588V7.24219H30.5655V8.97588H18.042Z" fill="#201932" fill-opacity="0.7" />
	<path d="M18.0391 5.37567V3.64648H30.5821V5.37567H18.0391Z" fill="#201932" fill-opacity="0.7" />
	<path d="M32.4346 8.98407V7.25488H34.1728V8.98407H32.4346Z" fill="#201932" fill-opacity="0.7" />
	<path d="M32.4556 3.62793H34.1652V5.37665H32.4556V3.62793Z" fill="#201932" fill-opacity="0.7" />
	<path d="M13.4615 23.4086C12.844 23.4086 12.2251 23.4177 11.6076 23.4056C11.0698 23.3951 10.8249 23.1577 10.8204 22.6214C10.8099 21.3489 10.8099 20.075 10.8204 18.801C10.8249 18.2631 11.0683 18.0183 11.6046 18.0137C12.8771 18.0032 14.1511 18.0032 15.4251 18.0137C15.9629 18.0183 16.2078 18.2616 16.2123 18.798C16.2228 20.0704 16.2228 21.3444 16.2123 22.6184C16.2078 23.1562 15.9644 23.3966 15.4281 23.4056C14.773 23.4177 14.118 23.4086 13.4615 23.4086ZM12.6562 19.8346V21.5653H14.3854V19.8346H12.6562Z" fill="#201932" fill-opacity="0.7" />
	<path d="M9.01717 20.7186C9.01717 21.3361 9.02317 21.955 9.01566 22.5725C9.00815 23.1719 8.77228 23.4033 8.16384 23.4063C6.92741 23.4123 5.69249 23.4138 4.45607 23.4063C3.85664 23.4033 3.62528 23.1629 3.62227 22.5545C3.61626 21.318 3.61476 20.0831 3.62227 18.8467C3.62528 18.2473 3.86565 18.0159 4.4741 18.0129C5.71052 18.0069 6.94544 18.0054 8.18187 18.0129C8.7813 18.0159 9.00965 18.2563 9.01566 18.8647C9.02167 19.4822 9.01566 20.1011 9.01566 20.7186H9.01717ZM7.19183 19.8412H5.45512V21.5674H7.19183V19.8412Z" fill="#201932" fill-opacity="0.7" />
	<path d="M3.61946 35.0479C3.61946 34.4304 3.61044 33.8115 3.62246 33.194C3.63298 32.6562 3.87035 32.4128 4.40818 32.4083C5.68066 32.3978 6.95464 32.3978 8.22863 32.4083C8.76646 32.4128 9.00984 32.6562 9.01435 33.194C9.02486 34.4665 9.02486 35.7405 9.01435 37.0144C9.00984 37.5523 8.76646 37.7957 8.22863 37.8002C6.95615 37.8107 5.68216 37.8107 4.40818 37.8002C3.87035 37.7957 3.63147 37.5523 3.62246 37.0144C3.61044 36.3594 3.61946 35.7044 3.61946 35.0479ZM5.44179 35.9763H7.1845V34.2426H5.44179V35.9763Z" fill="#201932" fill-opacity="0.7" />
	<path d="M13.5408 37.8029C12.9038 37.8029 12.2668 37.8104 11.6313 37.8014C11.068 37.7924 10.8246 37.5505 10.8201 36.9826C10.8126 35.7281 10.8126 34.4737 10.8201 33.2192C10.8231 32.6559 11.071 32.4125 11.6374 32.408C12.8918 32.4005 14.1463 32.4005 15.4007 32.408C15.9641 32.411 16.2075 32.6589 16.212 33.2252C16.2195 34.4797 16.2195 35.7342 16.212 36.9886C16.209 37.552 15.9611 37.7924 15.3947 37.7999C14.7772 37.8089 14.1583 37.8014 13.5408 37.8014V37.8029ZM14.3926 34.2453H12.662V35.9745H14.3926V34.2453Z" fill="#201932" fill-opacity="0.7" />
</svg>
